# xmcd
# 
# Track frame offsets:
#     150
#     13485
#     25380
#     37422
#     57250
#     69462
#     81340
#     93372
#     110897
#     125615
#     140732
#     156377
#     171630
#     185467
#     200482
#     215635
#     234850
#     248760
# 
# Disc length: 3509
# 
# Revision: 1
# Processed by: cddbd v1.5.2PL0 Copyright (c) Steve Scherf et al.
# Submitted via: fre:ac v1.0.31
# 
DISCID=1b0db312
DTITLE=Ramón Ayala - Antología CD 1
DYEAR=2003
DGENRE=Norteño
TTITLE0=Bonita Finca De Adobe
TTITLE1=La Latosa
TTITLE2=Tragos Amargos
TTITLE3=Casas De Madera
TTITLE4=Andan Diciendo
TTITLE5=El Tonto Que Te Amó
TTITLE6=Pa' Qué Me Sirve La Vida
TTITLE7=Arráncame El Corazón
TTITLE8=Baraja De Oro
TTITLE9=Central Camionera
TTITLE10=Enséñame A Olvidar
TTITLE11=Ojitos Soñadores
TTITLE12=Triste Recuerdo
TTITLE13=La Venganza Del Tahur
TTITLE14=Recuérdame y Ven A Mí
TTITLE15=Amigos Del Alma
TTITLE16=Sin Tu Presencia
TTITLE17=Te Caíste Del Cielo
EXTD=
EXTT0=
EXTT1=
EXTT2=
EXTT3=
EXTT4=
EXTT5=
EXTT6=
EXTT7=
EXTT8=
EXTT9=
EXTT10=
EXTT11=
EXTT12=
EXTT13=
EXTT14=
EXTT15=
EXTT16=
EXTT17=
PLAYORDER=
